<svg xmlns="http://www.w3.org/2000/svg" viewBox="0 0 331.67 388.25"><defs><style>.cls-1,.cls-2{fill:#8e3a16;}.cls-1,.cls-2,.cls-3,.cls-4{stroke:#1d1d1b;stroke-miterlimit:10;}.cls-1,.cls-2,.cls-3{stroke-width:2px;}.cls-2{stroke-linecap:round;}.cls-3{fill:#bf1819;}.cls-4,.cls-7{fill:#fff;}.cls-5,.cls-6{fill:#fcc230;}.cls-6{font-size:36px;font-family:ComicSansMS, Comic Sans MS;}.cls-7,.cls-8{fill-rule:evenodd;}.cls-10,.cls-8{fill:#e52521;}.cls-9{fill:#ffe108;}</style></defs><g id="Layer_10" data-name="Layer 10"><path class="cls-1" d="M600.35,369.79" transform="translate(-126.38 -293.69)"/><path class="cls-1" d="M449.92,395.73c-53.82,91.39-306.4,52.75-318.57,3.79-.73-2.91-4.49-21.88,5.54-31.5a22.88,22.88,0,0,1,15-6c9.18,0,14.8,6.49,17.69,4.19,1.93-1.53.5-5.24.09-9.89-.9-10.28,3.58-20.73,8.92-26.7,9-10.07,25.71-13.2,37.39-8.34,10.51,4.38,13.88,14,18.05,12.45,4.83-1.72-.22-14.38,6.45-24.32,8.38-12.47,32.35-16.42,45-7.58,9.14,6.4,9.54,17.56,14.9,17.42,5.19-.13,5.14-10.64,13.4-17.67,12.92-11,40.27-8.42,51,4.8,7.26,8.92,5.48,20.9,10.34,21.55,4,.54,5.15-7.68,12.14-10.69,11.17-4.8,31.37,4.2,36.89,18.44,4.67,12.07-4.32,19.88,1.51,27.79,7.05,9.57,24.29,3.7,28,12.89,1.67,4.07.45,10.51-1.2,14.62C452.49,391,451.32,393.37,449.92,395.73Z" transform="translate(-126.38 -293.69)"/><path class="cls-2" d="M164.65,376.82a13.36,13.36,0,0,1,4.92-10.61c5.4-4.17,11.7-2,12.13-1.9" transform="translate(-126.38 -293.69)"/><path class="cls-2" d="M225.7,342a13.37,13.37,0,0,1,8.32-8.23c6.51-2,11.68,2.16,12,2.46" transform="translate(-126.38 -293.69)"/><path class="cls-2" d="M290.3,325.26a13.36,13.36,0,0,1,10-6c6.81-.42,10.83,4.88,11.09,5.25" transform="translate(-126.38 -293.69)"/><path class="cls-2" d="M414.23,352.92a13.35,13.35,0,0,1,9.71,6.51c3.29,6,.2,11.88,0,12.28" transform="translate(-126.38 -293.69)"/><path class="cls-2" d="M364.44,332.72a13.36,13.36,0,0,1,10.67-4.79c6.82.38,10.18,6.12,10.41,6.51" transform="translate(-126.38 -293.69)"/></g><g id="Layer_1" data-name="Layer 1"><path class="cls-3" d="M139.93,412.23a550.62,550.62,0,0,0,144.75,18.95c69.62-.21,126.71-14.52,166-27.06-9.34,80.46-18.36,159-27.71,239.44-1.8,2.06-5.71,6.49-10.31,9.21-67.77,40.11-160.27,34.76-227.24.47-6.19-3.17-11-6-13.64-7.58Z" transform="translate(-126.38 -293.69)"/></g><g id="Layer_2" data-name="Layer 2"><path class="cls-4" d="M128.54,396.31a6.1,6.1,0,0,1,6.1-1.32A499.6,499.6,0,0,0,286.2,418.77a499.59,499.59,0,0,0,163.29-27.26,5.88,5.88,0,0,1,3.11-.24,6.2,6.2,0,0,1,4.51,3.25c1.37,3-.49,7.57-4.93,9.09a533.21,533.21,0,0,1-163.32,28,530.09,530.09,0,0,1-150-19.74c-.41-.11-3.66-1.32-4-1.51-7.84-4.05-8.8-8.81-7.39-12.44A4.6,4.6,0,0,1,128.54,396.31Z" transform="translate(-126.38 -293.69)"/><path class="cls-4" d="M491.59,474.76" transform="translate(-126.38 -293.69)"/></g><g id="Layer_5" data-name="Layer 5"><path class="cls-5" d="M160.55,525.68c3.54,5.43,7.11,75.81,16.62,75.13,2.89-.21,5.19-14.47,6-55.19.69,9.72,1.55,20.78,2.65,33,2.16,24,3.95,38.59,12.13,54.19,2.23,4.26,5.65,10.8,8,10.23,4.22-1,4.68-25.64-.75-45.85,12.5,14.65,15.72,26.8,16.32,35.25.47,6.67-.54,13.27,4.14,19.32,4.56,5.9,13.09,9.4,16.67,6.82,1.64-1.18,1.62-3.17,2.28-14.4.3-5.25,2.22-9.37,2.4-12,1.4,14.33,5.47,23.83,11.24,24.12,3.93.2,7.47-4,8-4.54,4.23-5,2.49-9.92,4.92-17.81a36.38,36.38,0,0,1,7.58-13.27c-4.78,12.11-3.72,24.72,3.41,32.59,1.17,1.29,8.16,8.69,16.3,7.2,8.66-1.59,12.65-12.17,14.78-17.81,5.13-13.61,2.46-26.48.37-33.35,9.93,3,9.55,34.11,12.51,43.2,1.27,3.91,6.62-23.41,9.47-20.46-3.45,11-.76,21.22,5.75,25.27,5.6,3.48,12.32,1.25,13.4.9,11-3.66,18.25-18.16,18.75-36.4a60.59,60.59,0,0,1,4.92,15.54c2.16,12.51-.58,20.67,1.14,21.22,2.21.7,9.51-11.76,13.64-26.15a98,98,0,0,0,3-38.27,39.82,39.82,0,0,1,4.1,8.15c5.95,16.26-1.06,30.58,3.48,32.77,1.92.93,4.36,1.39,5.69,0a14.92,14.92,0,0,0,4.4-10.34c.06-5.18,5.13-31,5.89-34.5,2.89-13.48,6.61-33.12,12.13-56.9-7.58,45.09-15.33,115.64-4.11,60l-2.59,26.9-2.55,23c-10.24,16.67-69.92,39.69-129.8,37.54-51-1.67-100.94-22-120.55-35.5-1.13-8.53-2.92-18.4-4-26.6C155.45,521.08,158.87,523.93,160.55,525.68Z" transform="translate(-126.38 -293.69)"/></g><g id="Layer_6" data-name="Layer 6"><path class="cls-5" d="M218.24,573.25V512.9h26a18.67,18.67,0,0,1,8.16,1.78,20.38,20.38,0,0,1,6.46,4.8,22.36,22.36,0,0,1,4.21,6.76,20.41,20.41,0,0,1,1.49,7.57,21.39,21.39,0,0,1-2.51,10.11,21,21,0,0,1-7,7.78,18.13,18.13,0,0,1-10.41,3h-9.86v18.53Zm16.58-33h8.75a3.6,3.6,0,0,0,2-.6,4.37,4.37,0,0,0,1.57-2,9.49,9.49,0,0,0,.64-3.82,8.86,8.86,0,0,0-.72-4,4.4,4.4,0,0,0-1.79-2,4.47,4.47,0,0,0-2.08-.55h-8.33Z" transform="translate(-126.38 -293.69)"/><path class="cls-5" d="M298.4,573.67a29.43,29.43,0,0,1-12.5-2.59,30.31,30.31,0,0,1-9.65-7,31.71,31.71,0,0,1-6.2-9.86,30.53,30.53,0,0,1-2.17-11.35,29.19,29.19,0,0,1,2.3-11.47,32,32,0,0,1,6.41-9.74,30,30,0,0,1,9.78-6.75,30.5,30.5,0,0,1,12.37-2.47,29.13,29.13,0,0,1,22.1,9.61A32.26,32.26,0,0,1,327,532a30.26,30.26,0,0,1,2.17,11.26,29.51,29.51,0,0,1-2.25,11.39,31.2,31.2,0,0,1-6.38,9.73,30.58,30.58,0,0,1-9.73,6.8A30,30,0,0,1,298.4,573.67Zm-13.69-30.6a20.8,20.8,0,0,0,.85,5.91,16.07,16.07,0,0,0,2.55,5.1,12.35,12.35,0,0,0,4.3,3.57,14.92,14.92,0,0,0,12.36,0,11.87,11.87,0,0,0,4.3-3.7,17,17,0,0,0,2.46-5.19,21.08,21.08,0,0,0,.81-5.82,20.31,20.31,0,0,0-.85-5.86,16.18,16.18,0,0,0-2.55-5.06,11.82,11.82,0,0,0-4.34-3.53,13.85,13.85,0,0,0-6.12-1.27,13.05,13.05,0,0,0-6.16,1.36,12.55,12.55,0,0,0-4.29,3.61,15.2,15.2,0,0,0-2.51,5.1A21.19,21.19,0,0,0,284.71,543.07Z" transform="translate(-126.38 -293.69)"/><path class="cls-5" d="M380.42,527.35H363.08v45.9H346.51v-45.9H329.08V512.9h51.34Z" transform="translate(-126.38 -293.69)"/><text class="cls-6" transform="translate(135.85 198.69)">The</text></g><g id="Layer_8" data-name="Layer 8"><g id="Layer_1-2" data-name="Layer_1"><g id="_2212441387712" data-name=" 2212441387712"><path class="cls-7" d="M298.72,568c3.35-11.62,10-9.34,15.69-13.93,3.7-2.7,3.54-5.91,1.46-9.36l-7.13-10.83c10.25.81,9.85-11,3.17-11,3.18-5.34-2.8-11.52-7.38-7.9,0-5.39-3.2-7.42-6-7.4-3.4,0-6.36,3.07-6.11,7.45-4.6-3.57-10.06,2-7.52,7.85-6.5.27-6.73,11.44,2.9,11.06l-5.93,9.88c-3.21,5-2.21,8.52,2.19,11.12,10.26,4.8,11.44,4.43,14.64,13.08Z" transform="translate(-126.38 -293.69)"/><path class="cls-8" d="M298.48,509.34c-2.72,0-4.34,2.59-4.33,5.46,0,2.52,2.13,5.17,2.39,7.55s-.14,4.11-1.14,4.22-2.35-1.48-2.35-5.85c0-3.36-2.44-6.28-5.1-4.59a4.63,4.63,0,0,0-1.22,6.34c.84,1.49,2.61,2.35,3.66,3.57,1.21,1.42,1.4,3.35.68,3.75s-2.73-1.37-3.94-3.71a2.52,2.52,0,0,0-4.37-.27c-2.21,3.59,1,6,3.13,6.3,3.22.46,7.19-.7,12.59-.7s9.41,1.16,12.63.7c2.11-.29,5.34-2.71,3.12-6.3a2.52,2.52,0,0,0-4.37.27c-1.2,2.34-3.16,4.15-3.95,3.71s-.51-2.33.69-3.75c1-1.22,2.81-2.08,3.65-3.57a4.62,4.62,0,0,0-1.2-6.34c-2.67-1.69-5.1,1.23-5.1,4.59,0,4.37-1.48,6-2.37,5.85s-1.37-2-1.13-4.22,2.36-5,2.38-7.55c0-2.87-1.59-5.46-4.35-5.46Z" transform="translate(-126.38 -293.69)"/><path class="cls-9" d="M306.3,533.38c.43.5,8.17,12.17,8.74,13.68s.71,2.83.12,3.76a6.74,6.74,0,0,1-1.51,1.69,10.94,10.94,0,0,1-2,1.3c-.72.38-1.49.75-2.28,1.09l-2.45,1c-.81.37-1.64.76-2.45,1.2a16.36,16.36,0,0,0-2.31,1.51,12.13,12.13,0,0,0-2,2,11.14,11.14,0,0,0-1.54,2.7,12.25,12.25,0,0,0-1.55-2.7,10.9,10.9,0,0,0-2-2,15.19,15.19,0,0,0-2.3-1.51c-.8-.44-1.63-.83-2.45-1.2l-2.44-1.05c-.8-.33-1.58-.7-2.3-1.08a11.39,11.39,0,0,1-2-1.3,7.38,7.38,0,0,1-1.51-1.69c-.58-.93-.48-2.27,0-3.77s7.69-13.1,8.1-13.58a36.61,36.61,0,0,1,8.21-.87,35.67,35.67,0,0,1,7.83.78Z" transform="translate(-126.38 -293.69)"/><path class="cls-10" d="M302.32,535.94a11.78,11.78,0,0,0-4,5.06,11.71,11.71,0,0,0-4-5c1.41.51,2.63-.73,4-.73s2.76,1.24,4,.71Z" transform="translate(-126.38 -293.69)"/><path class="cls-8" d="M292.71,551.58a.68.68,0,0,0-.31-.07.63.63,0,0,0-.43.19v-.15h-.73v2.51H292v-1.62a.26.26,0,0,1,.28-.25.44.44,0,0,1,.32.15l.14-.76Z" transform="translate(-126.38 -293.69)"/><path class="cls-8" d="M293.82,551.51c-.61,0-.94.46-.94,1.31s.32,1.29.94,1.29v-.58c-.15,0-.23-.14-.24-.51h.24v-.49h-.24c0-.35.08-.47.23-.47h0Zm0,2.6h0a1,1,0,0,0,.88-.51l-.43-.35c-.16.23-.27.28-.4.28h-.05Zm.92-1.09v-.18c0-.88-.32-1.33-.92-1.33v.55c.17,0,.24.14.25.47h-.25V553Z" transform="translate(-126.38 -293.69)"/><path class="cls-8" d="M296,551.57a1,1,0,0,0-.2.13v-.15h-.72V555l.72-.28v-.77l.2.14v-.57a.33.33,0,0,1-.2-.09v-1.18a.3.3,0,0,1,.2-.1v-.55Zm.93,1.23c0-.87-.23-1.29-.66-1.29a.63.63,0,0,0-.27.06v.55h0c.14,0,.19.1.19.69s-.05.68-.19.68h0v.57a1.11,1.11,0,0,0,.25.05c.45,0,.68-.41.68-1.31Z" transform="translate(-126.38 -293.69)"/><path class="cls-8" d="M299.11,554.06v-2.51h-.74v1.84a.29.29,0,0,1-.22.09c-.12,0-.18-.09-.18-.28v-1.65h-.73v1.77c0,.54.21.79.62.79a.7.7,0,0,0,.51-.19v.14Z" transform="translate(-126.38 -293.69)"/><path class="cls-8" d="M300.43,551.57a.76.76,0,0,0-.2.13v-1.12l-.74.3v3.18h.74v-.14l.2.14v-.57a.29.29,0,0,1-.2-.09v-1.18a.28.28,0,0,1,.2-.1v-.55Zm.95,1.23c0-.87-.25-1.29-.68-1.29a.63.63,0,0,0-.27.06v.55h0c.12,0,.19.1.19.69s-.07.68-.19.68h0v.57a.92.92,0,0,0,.25.05c.45,0,.7-.41.7-1.31Z" transform="translate(-126.38 -293.69)"/><polygon class="cls-8" points="176.07 260.37 176.07 256.89 175.34 257.19 175.34 260.37 176.07 260.37"/><path class="cls-8" d="M303.6,551.55h-.73v2.51h.73Zm0-.61a.37.37,0,0,0-.41-.37.38.38,0,1,0,0,.76.37.37,0,0,0,.41-.39Z" transform="translate(-126.38 -293.69)"/><path class="cls-8" d="M305.74,553.38l-.53-.28c-.11.3-.19.39-.29.39s-.26-.17-.26-.68.08-.69.24-.69.18.1.25.39l.58-.28c-.14-.43-.36-.72-.83-.72-.64,0-1,.43-1,1.3s.38,1.3.95,1.3.69-.24.86-.73Z" transform="translate(-126.38 -293.69)"/><path class="cls-8" d="M289.81,548.62l-.93-.48c-.17.54-.3.68-.49.68s-.43-.3-.43-1.15.11-1.19.4-1.19.32.17.43.66l1-.46c-.24-.76-.63-1.24-1.41-1.24-1.11,0-1.65.74-1.65,2.23s.62,2.2,1.62,2.2c.73,0,1.15-.39,1.46-1.25Z" transform="translate(-126.38 -293.69)"/><path class="cls-8" d="M293.51,549.77v-3c0-.91-.38-1.33-1.08-1.33a1.2,1.2,0,0,0-.87.33v-1.89l-1.25.48v5.41h1.25v-3.09a.56.56,0,0,1,.38-.17c.21,0,.31.15.31.47v2.79Z" transform="translate(-126.38 -293.69)"/><path class="cls-8" d="M295.42,545.52h-1.25v4.25h1.25Zm.08-1a.71.71,0,0,0-1.41,0,.71.71,0,0,0,1.41,0Z" transform="translate(-126.38 -293.69)"/><path class="cls-8" d="M299.05,548.62l-.93-.48c-.16.54-.29.68-.49.68s-.42-.3-.42-1.15.11-1.19.4-1.19.32.17.43.66l1-.46c-.24-.76-.62-1.24-1.41-1.24-1.1,0-1.65.74-1.65,2.23s.62,2.2,1.62,2.2c.73,0,1.15-.39,1.45-1.25Z" transform="translate(-126.38 -293.69)"/><path class="cls-8" d="M302.87,549.77l-.9-2.92.87-1.33h-1.33l-.18.32c-.23.42-.44.84-.56,1.1,0-.29,0-.78,0-1.11v-2l-1.25.48v5.41h1.25v-1.39l.25-.42.49,1.81Z" transform="translate(-126.38 -293.69)"/><path class="cls-8" d="M304.78,545.44c-1,0-1.6.77-1.6,2.23s.54,2.2,1.6,2.2v-1c-.24,0-.4-.25-.43-.88h.43v-.81h-.43c0-.62.16-.82.41-.82h0v-.94Zm0,4.43h0a1.68,1.68,0,0,0,1.48-.87l-.73-.59c-.27.36-.44.48-.7.48h-.06v1Zm1.56-1.86v-.3c0-1.52-.54-2.27-1.55-2.27h0v.94c.29,0,.4.24.42.82h-.42V548Z" transform="translate(-126.38 -293.69)"/><path class="cls-8" d="M310.09,549.77v-3c0-.91-.38-1.33-1.08-1.33a1.23,1.23,0,0,0-.87.33v-.25h-1.25v4.25h1.25v-3.09a.56.56,0,0,1,.38-.17c.21,0,.32.15.32.47v2.79Z" transform="translate(-126.38 -293.69)"/></g></g></g></svg>